<?xml version="1.0" standalone="no"?>
<!DOCTYPE svg PUBLIC "-//W3C//DTD SVG 20010904//EN"
 "http://www.w3.org/TR/2001/REC-SVG-20010904/DTD/svg10.dtd">
<svg version="1.0" xmlns="http://www.w3.org/2000/svg"
 viewBox="0 0 360.000000 360.000000"
 preserveAspectRatio="xMidYMid meet">

<g transform="translate(0.000000,360.000000) scale(0.100000,-0.100000)"
fill="#000000" stroke="none">
<path d="M1017 2583 c-4 -3 -7 -145 -7 -315 l0 -308 258 2 257 3 3 68 4 67
-186 0 -186 0 0 170 0 170 640 0 640 0 0 -170 0 -170 -255 0 -255 0 0 -470 0
-470 -130 0 -130 0 0 309 0 310 146 248 c80 136 152 258 160 271 8 12 13 22
10 22 -10 0 -449 -486 -457 -506 -4 -13 -7 -198 -6 -411 l2 -388 275 0 275 0
2 470 2 470 256 3 255 2 -2 313 -3 312 -781 3 c-429 1 -784 -1 -787 -5z"/>
</g>
</svg>
