<?xml version="1.0" encoding="utf-8"?>
<svg viewBox="0 0 500 500" xmlns="http://www.w3.org/2000/svg">
  <g transform="matrix(0.3158999979496002, 0, 0, -0.3158999979496002, -318.5169372558594, 818.4301147460936)" fill="#000000" stroke="none" style="">
    <path d="M1017 2583 c-4 -3 -7 -145 -7 -315 l0 -308 258 2 257 3 3 68 4 67 -186 0 -186 0 0 170 0 170 640 0 640 0 0 -170 0 -170 -255 0 -255 0 0 -470 0 -470 -130 0 -130 0 0 309 0 310 146 248 c80 136 152 258 160 271 8 12 13 22 10 22 -10 0 -449 -486 -457 -506 -4 -13 -7 -198 -6 -411 l2 -388 275 0 275 0 2 470 2 470 256 3 255 2 -2 313 -3 312 -781 3 c-429 1 -784 -1 -787 -5z"/>
  </g>
</svg>